Release info:

General
Format                                   : Matroska
Format version                           : Version 4 / Version 2
File size                                : 687 MiB
Duration                                 : 2h 12mn
Overall bit rate                         : 725 Kbps
Movie name                               : ABCD ΓÇô Any Body Can Dance 2013 Camrip Hindi

Video
ID                                       : 1
Format                                   : MPEG-4 Visual
Format profile                           : Advanced Simple@L5
Format settings, BVOP                    : Yes
Format settings, QPel                    : No
Format settings, GMC                     : No warppoints
Format settings, Matrix                  : Custom
Codec ID                                 : V_MS/VFW/FOURCC / XVID
Codec ID/Hint                            : XviD
Duration                                 : 2h 12mn
Bit rate                                 : 630 Kbps
Width                                    : 608 pixels
Height                                   : 256 pixels
Display aspect ratio                     : 2.40:1
Frame rate mode                          : Constant
Frame rate                               : 25.000 fps
Color space                              : YUV
Chroma subsampling                       : 4:2:0
Bit depth                                : 8 bits
Scan type                                : Progressive
Compression mode                         : Lossy
Bits/(Pixel*Frame)                       : 0.162
Stream size                              : 597 MiB (87%)
Title                                    : ABCD ΓÇô Any Body Can Dance 2013 Camrip Hindi
Language                                 : Hindi
Default                                  : Yes
Forced                                   : No

Audio
ID                                       : 2
Format                                   : MPEG Audio
Format version                           : Version 1
Format profile                           : Layer 3
Mode                                     : Joint stereo
Mode extension                           : MS Stereo
Codec ID                                 : A_MPEG/L3
Codec ID/Hint                            : MP3
Duration                                 : 2h 12mn
Bit rate mode                            : Constant
Bit rate                                 : 80.0 Kbps
Channel(s)                               : 2 channels
Sampling rate                            : 32.0 KHz
Compression mode                         : Lossy
Stream size                              : 75.8 MiB (11%)
Title                                    : ABCD ΓÇô Any Body Can Dance 2013 Camrip Hindi
Language                                 : Hindi
Default                                  : Yes
Forced                                   : No



Source:
credit to original movie ripper DDR (Thanks)

IMDB Info:

For Vishnu (Prabhudheva), widely regarded as India's best dancer, dance is more than a passion - it's the reason he lives! So when he finds himself thrown out from the swish dance academy ... 

Director: Remo
Writers: Amit Aryan (dialogue), Tushar Hiranandani (screenplay), 
Stars: Ganesh Acharya, Vrushali Chavan, Prabhu Deva

 
http://www.imdb.com/title/tt2321163/

Screen Shot:
 
http://hostpicturefree.com/images/vlcsnaoeo.png 
http://hostpicturefree.com/images/vlcsnaxyx.png 
http://hostpicturefree.com/images/vlcsnaici.png 
http://hostpicturefree.com/images/vlcsnaiki.png